<svg width="40" height="32" viewBox="0 0 40 32" fill="none" xmlns="http://www.w3.org/2000/svg">
<path d="M39.3662 0H0.633754C0.283795 0 0 0.283668 0 0.633754V30.9168C0 31.2669 0.283795 31.5505 0.633754 31.5505H39.3662C39.7165 31.5505 40 31.2669 40 30.9168V0.633754C40 0.283668 39.7165 0 39.3662 0ZM36.1975 26.4979L27.4813 17.4715C27.385 17.372 27.2275 17.3655 27.1235 17.457L21.0781 22.7779L13.3512 13.2638C13.301 13.2017 13.2276 13.1662 13.1446 13.168C13.0646 13.1697 12.9899 13.2081 12.9421 13.2722L3.80252 25.536V3.80252H36.1975V26.4979Z" fill="#002B3D"/>
<path d="M26.6252 12.9572C28.3411 12.9572 29.7342 11.5652 29.7342 9.84786C29.7342 8.13102 28.3411 6.73828 26.6252 6.73828C24.9078 6.73828 23.5162 8.13102 23.5162 9.84786C23.5162 11.5651 24.908 12.9572 26.6252 12.9572Z" fill="#002B3D"/>
</svg>
