<svg width="60" height="60" viewBox="0 0 60 60" fill="none" xmlns="http://www.w3.org/2000/svg">
<rect width="60" height="60" fill="white"/>
<path d="M49.4531 0H0V52.9688C0 56.846 3.15399 60 7.03125 60H52.9688H52.9697C56.846 60 60 56.846 60 52.9688V28.2422H49.4531V0ZM7.03125 56.4844C5.09262 56.4844 3.51562 54.9074 3.51562 52.9688V3.51562H45.9375V52.9688C45.9375 54.2491 46.2831 55.4494 46.8832 56.4844H7.03125ZM56.4844 31.7578V52.9688C56.4844 54.9074 54.9078 56.4844 52.9688 56.4844C51.0301 56.4844 49.4531 54.9074 49.4531 52.9688V31.7578H56.4844Z" fill="#002B3D"/>
<path d="M7.03125 21.2109H42.4219V7.03125H7.03125V21.2109ZM10.5469 10.5469H38.9062V17.6953H10.5469V10.5469Z" fill="#002B3D"/>
<path d="M7.03125 24.7266H24.7266V28.2422H7.03125V24.7266Z" fill="#002B3D"/>
<path d="M28.2422 24.7266H42.4219V28.2422H28.2422V24.7266Z" fill="#002B3D"/>
<path d="M7.03125 31.7578H24.7266V35.2734H7.03125V31.7578Z" fill="#002B3D"/>
<path d="M28.2422 31.7578H42.4219V35.2734H28.2422V31.7578Z" fill="#002B3D"/>
<path d="M7.03125 38.7891H24.7266V42.3047H7.03125V38.7891Z" fill="#002B3D"/>
<path d="M7.03125 45.8203H24.7266V49.3359H7.03125V45.8203Z" fill="#002B3D"/>
<path d="M28.2422 49.3359H42.4219V38.7891H28.2422V49.3359ZM31.7578 42.3047H38.9062V45.8203H31.7578V42.3047Z" fill="#002B3D"/>
</svg>
