<svg width="71" height="60" viewBox="0 0 71 60" fill="none" xmlns="http://www.w3.org/2000/svg">
<path d="M66.2541 33.801L58.1709 30.2537C57.5998 30.0032 57.2311 29.4426 57.2311 28.8259V26.6341C59.9464 24.4979 61.6917 21.2083 61.6917 17.5218V14.4366C62.5862 13.9485 63.1784 13.0054 63.1784 11.9491V11.6496C63.1784 5.22606 57.8856 0 51.38 0H48.4066C41.901 0 36.6082 5.22606 36.6082 11.6496V14.3664C36.6082 15.2949 37.0129 16.136 37.7183 16.6743C37.8379 16.7655 37.9638 16.8457 38.095 16.9151V17.5216C38.095 21.2081 39.84 24.4977 42.5552 26.6338V28.8257C42.5552 29.4425 42.1862 30.003 41.6154 30.2536L33.5322 33.8008C30.885 34.9625 29.1744 37.5615 29.1744 40.4218V58.626C29.1744 59.3845 29.7972 59.9995 30.5654 59.9995C31.3336 59.9995 31.9564 59.3845 31.9564 58.626V40.422C31.9564 40.2629 31.9679 40.1056 31.9846 39.9495L35.7092 43.6272C36.2888 44.1997 36.6082 44.9606 36.6082 45.7702V58.6262C36.6082 59.3847 37.231 59.9997 37.9992 59.9997C38.7675 59.9997 39.3903 59.3847 39.3903 58.6262V45.7702C39.3903 44.227 38.7817 42.7762 37.6765 41.6849L33.2362 37.3003C33.6362 36.8905 34.1162 36.5508 34.6623 36.3111L42.6091 32.8237L48.5025 38.6427V58.626C48.5025 59.3845 49.1253 59.9995 49.8935 59.9995C50.6617 59.9995 51.2845 59.3845 51.2845 58.626V38.6429L57.1779 32.8238L65.1245 36.3111C65.6706 36.5508 66.1506 36.8905 66.5506 37.3005L62.1103 41.6849C61.005 42.7762 60.3965 44.227 60.3965 45.7702V58.6262C60.3965 59.3847 61.0193 59.9997 61.7875 59.9997C62.5558 59.9997 63.1786 59.3847 63.1786 58.6262V45.7702C63.1786 44.9608 63.4978 44.1997 64.0776 43.6272L67.802 39.9497C67.8187 40.1057 67.8302 40.2627 67.8302 40.4218V58.626C67.8302 59.3845 68.453 59.9995 69.2212 59.9995C69.9894 59.9995 70.6122 59.3845 70.6122 58.626V40.422C70.6117 37.5617 68.9013 34.9626 66.2541 33.801ZM49.8929 36.1316L44.7218 31.0255C45.115 30.3722 45.337 29.6164 45.337 28.8259V28.2669C46.7397 28.8489 48.279 29.1714 49.8931 29.1714C51.5073 29.1714 53.0463 28.8491 54.4488 28.2671V28.8259C54.4488 29.6166 54.6708 30.3722 55.0642 31.0257L49.8929 36.1316ZM49.8931 26.4243C44.9216 26.4244 40.8768 22.4307 40.8768 17.5218V16.9041C41.7448 16.5644 42.5921 16.0238 43.4031 15.2848C43.9675 14.7704 44.0029 13.9014 43.4818 13.344C42.9608 12.7867 42.0809 12.7517 41.5161 13.2661C40.8204 13.9003 40.1253 14.31 39.4506 14.484C39.4342 14.4882 39.4222 14.49 39.4136 14.4908C39.4036 14.4715 39.3901 14.4312 39.3901 14.3666V11.6498C39.3901 6.74094 43.4348 2.74718 48.4064 2.74718H51.3799C56.3516 2.74718 60.3961 6.74094 60.3961 11.6498V11.9492C60.3961 11.9937 60.3691 12.0324 60.3335 12.0393C52.0038 13.6637 47.8259 10.6023 46.4163 9.21049C45.873 8.67409 44.9922 8.67409 44.4492 9.21049C43.9059 9.74688 43.9059 10.6166 44.4492 11.1528C48.7688 15.418 55.072 15.4949 58.9094 15.0396V17.5216C58.9094 22.4305 54.8647 26.4243 49.8931 26.4243Z" fill="#002B3D"/>
<path d="M28.9755 21.8958V18.5725C28.9755 14.5174 26.797 10.9477 23.5145 8.89339C23.7172 8.26438 23.823 7.60552 23.823 6.94294C23.823 3.33758 20.791 0.404541 17.0639 0.404541C13.3368 0.404541 10.3047 3.33778 10.3047 6.94294C10.3047 7.61381 10.4097 8.26624 10.6128 8.8938C7.33054 10.9479 5.15227 14.5176 5.15227 18.5725V21.8952C5.15227 25.822 7.19471 29.2943 10.3045 31.3755V34.7937C10.3045 35.4679 9.91739 36.0739 9.29414 36.3755L3.73629 39.0635C1.43161 40.1785 0 42.4193 0 44.912V58.4453C0 59.3038 0.719449 59.9997 1.60687 59.9997C2.49429 59.9997 3.21374 59.3038 3.21374 58.4453V45.5843L5.83144 48.1165C6.50097 48.7644 6.8699 49.6255 6.8699 50.5418V58.4453C6.8699 59.3038 7.58935 59.9997 8.47677 59.9997C9.36419 59.9997 10.0836 59.3038 10.0836 58.4453V50.5418C10.0836 48.7953 9.38048 47.1534 8.10398 45.9184L4.46067 42.3941C4.4431 42.3771 4.42425 42.3624 4.40625 42.3464C4.63486 42.1512 4.89131 41.9812 5.17369 41.8444L10.7315 39.1564C11.0163 39.0185 11.2813 38.8559 11.5283 38.6751L15.457 42.4757V58.4455C15.457 59.304 16.1765 59.9999 17.0639 59.9999C17.9513 59.9999 18.6708 59.304 18.6708 58.4455V42.4755L22.5997 38.6749C22.8469 38.8559 23.1117 39.0185 23.3965 39.1562L24.929 39.8975C25.1597 40.0092 25.4048 40.0621 25.6465 40.0621C26.2359 40.0621 26.8034 39.747 27.085 39.2026C27.482 38.4347 27.1602 37.501 26.3664 37.1172L24.8339 36.3759C24.2104 36.0743 23.8232 35.4683 23.8232 34.7943V31.3761C26.9331 29.2949 28.9755 25.8224 28.9755 21.8958ZM17.0639 3.51333C19.0189 3.51333 20.6093 5.05197 20.6093 6.94294C20.6093 7.15123 20.59 7.35537 20.5532 7.55537C19.4489 7.2275 18.2776 7.04988 17.0639 7.04988C15.8519 7.04988 14.6821 7.22687 13.5796 7.55392C13.5425 7.35392 13.5185 7.15081 13.5185 6.94294C13.5185 5.05176 15.1089 3.51333 17.0639 3.51333ZM17.0639 10.1589C21.8599 10.1589 25.7618 13.9333 25.7618 18.5727V19.136C19.0718 21.1173 15.0849 16.1945 14.9145 15.9787C14.6349 15.6183 14.2075 15.3928 13.743 15.3609C13.2785 15.3294 12.8222 15.4938 12.4929 15.8123C10.9591 17.296 9.45675 18.0117 8.37179 18.3571C8.4907 13.8171 12.3427 10.1589 17.0639 10.1589ZM17.0639 39.6333L13.3507 36.0414C13.4591 35.6405 13.5185 35.2227 13.5185 34.7939V32.8965C14.6388 33.2352 15.8298 33.4178 17.0639 33.4178C18.298 33.4178 19.489 33.2352 20.6093 32.8965V34.7939C20.6093 35.2227 20.6686 35.6407 20.777 36.0414L17.0639 39.6333ZM17.0639 30.309C12.2679 30.309 8.36601 26.5345 8.36601 21.8952V21.5731C9.64743 21.2883 11.5474 20.6266 13.5294 19.0846C14.2307 19.7246 15.2329 20.5097 16.5092 21.183C18.0188 21.9795 20.1037 22.7163 22.6502 22.7163C23.618 22.7163 24.6535 22.6075 25.7481 22.3575C25.4989 26.7828 21.6994 30.309 17.0639 30.309Z" fill="#002B3D"/>
</svg>
