<svg width="60" height="47" viewBox="0 0 60 47" fill="none" xmlns="http://www.w3.org/2000/svg">
<path d="M57.9154 2.08467C55.1357 -0.694891 50.6127 -0.694891 47.833 2.08467L21.5015 28.4159L12.1672 19.0815C9.38749 16.3019 4.86447 16.3019 2.08477 19.0815C-0.694924 21.8612 -0.694924 26.3842 2.08477 29.1639L18.1609 45.24C19.082 46.1611 20.2917 46.6215 21.5015 46.6215C22.7114 46.6215 23.9212 46.1611 24.8423 45.24L57.9154 12.1668C60.6949 9.38725 60.6949 4.8645 57.9154 2.08467ZM55.331 9.58256L22.2577 42.656C21.841 43.0728 21.1623 43.0728 20.7455 42.656L4.66943 26.5797C3.31472 25.225 3.31472 23.021 4.66943 21.6663C5.34672 20.9887 6.23628 20.6502 7.12611 20.6502C8.01594 20.6502 8.90564 20.9888 9.5828 21.6663L19.1854 31.2688C19.8041 31.8875 20.6269 32.2281 21.5016 32.2281C22.3768 32.2281 23.1995 31.8873 23.8182 31.2687L50.4175 4.66906C51.7719 3.31435 53.9763 3.31435 55.331 4.66906C56.6856 6.02378 56.6856 8.22785 55.331 9.58256Z" fill="#002B3D"/>
</svg>
