<svg width="35" height="32" viewBox="0 0 35 32" fill="none" xmlns="http://www.w3.org/2000/svg">
<path d="M4.75909 30.2282C4.75909 30.2282 4.728 31.0105 5.49225 31.0105C6.44302 31.0105 14.3148 31.0002 14.3148 31.0002L14.3277 23.7709C14.3277 23.7709 14.2034 22.5792 15.3601 22.5792H19.0207C20.3886 22.5792 20.3044 23.7709 20.3044 23.7709L20.2889 30.9769C20.2889 30.9769 27.7526 30.9769 28.9249 30.9769C29.8951 30.9769 29.8511 30.0028 29.8511 30.0028V16.6751L17.6801 5.84863L4.75909 16.6751V30.2282Z" fill="#002B3D"/>
<path d="M0 15.6671C0 15.6671 1.09715 17.6891 3.48964 15.6671L17.7876 3.57124L31.193 15.592C33.9624 17.5894 35 15.592 35 15.592L17.7876 0L0 15.6671Z" fill="#002B3D"/>
<path d="M30.8679 3.54297H27.4197L27.4339 7.72432L30.8679 10.6375V3.54297Z" fill="#002B3D"/>
</svg>
