<svg width="119" height="56" viewBox="0 0 119 56" fill="none" xmlns="http://www.w3.org/2000/svg">
<circle cx="21.178" cy="34.822" r="21.178" fill="#002B3D"/>
<path fill-rule="evenodd" clip-rule="evenodd" d="M21.5789 47.3851C21.2254 47.417 20.8674 47.4334 20.5057 47.4334C14.0077 47.4334 8.74012 42.1658 8.74012 35.6678C8.74012 34.0572 9.06374 32.5222 9.64951 31.1243C7.06567 32.9504 5.37854 35.961 5.37854 39.3656C5.37854 44.9352 9.89363 49.4503 15.4633 49.4503C17.7627 49.4503 19.8824 48.6807 21.5789 47.3851Z" fill="#FAFDFF" fill-opacity="0.26"/>
<circle cx="36.9774" cy="18.3503" r="12.774" fill="#C4C4C4"/>
<circle cx="36.9774" cy="44.5706" r="10.0847" fill="#FF870A"/>
<circle cx="49.7514" cy="4.90395" r="4.0339" fill="#002B3D"/>
<circle cx="59.8362" cy="14.9887" r="3.36158" fill="#C4C4C4"/>
<circle cx="33.6158" cy="4.23164" r="3.36158" fill="#FF870A"/>
<path d="M72.3233 22.5287C72.6526 22.5287 72.904 22.6327 73.0773 22.8407C73.268 23.0314 73.3633 23.2914 73.3633 23.6207V40.0787C73.3633 40.3907 73.2766 40.642 73.1033 40.8327C72.93 41.0234 72.6873 41.1187 72.3753 41.1187C72.0633 41.1187 71.8293 41.0234 71.6733 40.8327C71.5173 40.642 71.4393 40.3907 71.4393 40.0787V26.7927L65.7973 37.6087C65.5546 38.1114 65.1993 38.3627 64.7313 38.3627C64.2806 38.3627 63.9253 38.1114 63.6653 37.6087L57.9973 26.9227V40.0787C57.9973 40.3907 57.9106 40.642 57.7373 40.8327C57.5813 41.0234 57.3473 41.1187 57.0353 41.1187C56.7233 41.1187 56.4806 41.0234 56.3073 40.8327C56.134 40.642 56.0473 40.3907 56.0473 40.0787V23.6207C56.0473 23.2914 56.1426 23.0314 56.3333 22.8407C56.524 22.6327 56.784 22.5287 57.1133 22.5287C57.5466 22.5287 57.8933 22.78 58.1533 23.2827L64.7573 35.9447L71.2833 23.2827C71.422 23.0054 71.5693 22.8147 71.7253 22.7107C71.8986 22.5894 72.098 22.5287 72.3233 22.5287ZM87.3986 38.0507C87.5893 38.0507 87.754 38.1287 87.8926 38.2847C88.0313 38.4407 88.1006 38.64 88.1006 38.8827C88.1006 39.316 87.7973 39.7147 87.1906 40.0787C86.5666 40.4427 85.908 40.72 85.2146 40.9107C84.5213 41.084 83.8453 41.1707 83.1866 41.1707C81.228 41.1707 79.6766 40.59 78.5326 39.4287C77.406 38.2674 76.8426 36.664 76.8426 34.6187C76.8426 33.3187 77.094 32.1747 77.5966 31.1867C78.0993 30.1814 78.8013 29.4014 79.7026 28.8467C80.6213 28.292 81.6613 28.0147 82.8226 28.0147C84.4693 28.0147 85.778 28.552 86.7486 29.6267C87.7193 30.7014 88.2046 32.1574 88.2046 33.9947C88.2046 34.3414 88.1353 34.5927 87.9966 34.7487C87.858 34.9047 87.6326 34.9827 87.3206 34.9827H78.9486C79.1046 37.964 80.5173 39.4547 83.1866 39.4547C83.8626 39.4547 84.4433 39.368 84.9286 39.1947C85.414 39.004 85.934 38.7527 86.4886 38.4407C86.9393 38.1807 87.2426 38.0507 87.3986 38.0507ZM82.8486 29.6527C81.7393 29.6527 80.8466 29.9994 80.1706 30.6927C79.512 31.386 79.122 32.3654 79.0006 33.6307H86.3586C86.324 32.348 86.0033 31.3687 85.3966 30.6927C84.79 29.9994 83.9406 29.6527 82.8486 29.6527ZM96.5336 41.1707C95.3549 41.1707 94.3062 40.902 93.3876 40.3647C92.4862 39.8274 91.7842 39.0647 91.2816 38.0767C90.7962 37.0887 90.5536 35.9447 90.5536 34.6447C90.5536 33.3447 90.8049 32.192 91.3076 31.1867C91.8276 30.1814 92.5469 29.4014 93.4656 28.8467C94.3842 28.292 95.4416 28.0147 96.6376 28.0147C97.2962 28.0147 97.9462 28.11 98.5876 28.3007C99.2462 28.474 99.8182 28.734 100.304 29.0807C100.616 29.2887 100.832 29.4967 100.954 29.7047C101.092 29.8954 101.162 30.112 101.162 30.3547C101.162 30.5974 101.092 30.7967 100.954 30.9527C100.832 31.1087 100.668 31.1867 100.46 31.1867C100.338 31.1867 100.208 31.152 100.07 31.0827C99.9309 31.0134 99.8096 30.944 99.7056 30.8747C99.6189 30.8054 99.5582 30.762 99.5236 30.7447C99.0729 30.45 98.6396 30.216 98.2236 30.0427C97.8249 29.8694 97.3309 29.7827 96.7416 29.7827C95.4762 29.7827 94.4882 30.216 93.7776 31.0827C93.0842 31.932 92.7376 33.1194 92.7376 34.6447C92.7376 36.17 93.0842 37.3487 93.7776 38.1807C94.4882 39.0127 95.4762 39.4287 96.7416 39.4287C97.3309 39.4287 97.8336 39.342 98.2496 39.1687C98.6829 38.9954 99.1162 38.7614 99.5496 38.4667C99.7402 38.3454 99.9222 38.2414 100.096 38.1547C100.269 38.068 100.416 38.0247 100.538 38.0247C100.728 38.0247 100.884 38.1027 101.006 38.2587C101.144 38.4147 101.214 38.614 101.214 38.8567C101.214 39.082 101.153 39.29 101.032 39.4807C100.91 39.654 100.685 39.8534 100.356 40.0787C99.8702 40.408 99.2809 40.6767 98.5876 40.8847C97.9116 41.0754 97.2269 41.1707 96.5336 41.1707ZM109.001 41.1707C107.805 41.1707 106.748 40.902 105.829 40.3647C104.928 39.8274 104.226 39.0647 103.723 38.0767C103.238 37.0714 102.995 35.91 102.995 34.5927C102.995 33.2754 103.238 32.1227 103.723 31.1347C104.226 30.1294 104.928 29.358 105.829 28.8207C106.748 28.2834 107.805 28.0147 109.001 28.0147C110.197 28.0147 111.254 28.2834 112.173 28.8207C113.092 29.358 113.794 30.1294 114.279 31.1347C114.782 32.1227 115.033 33.2754 115.033 34.5927C115.033 35.91 114.782 37.0714 114.279 38.0767C113.794 39.0647 113.092 39.8274 112.173 40.3647C111.254 40.902 110.197 41.1707 109.001 41.1707ZM109.001 39.4287C110.249 39.4287 111.202 39.0214 111.861 38.2067C112.537 37.3747 112.875 36.17 112.875 34.5927C112.875 33.05 112.537 31.8627 111.861 31.0307C111.185 30.1814 110.232 29.7567 109.001 29.7567C107.77 29.7567 106.817 30.1814 106.141 31.0307C105.465 31.8627 105.127 33.05 105.127 34.5927C105.127 36.1527 105.456 37.3487 106.115 38.1807C106.791 39.0127 107.753 39.4287 109.001 39.4287Z" fill="#002B3D"/>
</svg>
