<svg width="31" height="31" viewBox="0 0 31 31" fill="none" xmlns="http://www.w3.org/2000/svg">
<g clip-path="url(#clip0)">
<path d="M28.1777 12.6705H18.3216V2.82265C18.3216 1.26384 17.0639 0 15.5051 0C13.9463 0 12.6893 1.26384 12.6893 2.82333V12.6773H2.82843C1.26963 12.6773 0.00237008 13.9412 0.00305287 15.5007C0.00237008 16.2797 0.317136 16.9939 0.82718 17.504C1.33791 18.0154 2.04254 18.3384 2.82092 18.3384H12.6893V28.1787C12.6893 28.9585 12.9986 29.6645 13.5093 30.1738C14.02 30.6846 14.7226 31.0007 15.5024 31.0007C17.0605 31.0007 18.3216 29.7368 18.3216 28.1787V18.3377H28.1777C29.7365 18.3377 31.0003 17.0629 30.9996 15.5041C30.999 13.946 29.7351 12.6705 28.1777 12.6705Z" fill="#002B3D"/>
</g>
<defs>
<clipPath id="clip0">
<rect width="31" height="31" fill="white"/>
</clipPath>
</defs>
</svg>
