<svg width="31" height="31" viewBox="0 0 31 31" fill="none" xmlns="http://www.w3.org/2000/svg">
<g clip-path="url(#clip0)">
<path d="M15.2792 14.9328C17.3307 14.9328 19.1071 14.1971 20.5586 12.7454C22.01 11.2939 22.7458 9.51792 22.7458 7.46619C22.7458 5.41516 22.01 3.63896 20.5583 2.18702C19.1066 0.735786 17.3304 0 15.2792 0C13.2274 0 11.4515 0.735786 9.99999 2.18726C8.54852 3.63873 7.8125 5.41492 7.8125 7.46619C7.8125 9.51792 8.54852 11.2941 10.0002 12.7456C11.4519 14.1968 13.2281 14.9328 15.2792 14.9328Z" fill="#002B3D"/>
<path d="M28.3437 23.8374C28.3019 23.2333 28.2172 22.5744 28.0926 21.8786C27.9667 21.1776 27.8047 20.5149 27.6108 19.9092C27.4105 19.2831 27.138 18.6649 26.8012 18.0724C26.4517 17.4575 26.0411 16.922 25.5803 16.4814C25.0986 16.0204 24.5087 15.6498 23.8266 15.3795C23.1469 15.1106 22.3936 14.9744 21.5878 14.9744C21.2713 14.9744 20.9653 15.1042 20.3743 15.489C20.0105 15.7262 19.585 16.0006 19.1101 16.304C18.704 16.5628 18.1539 16.8052 17.4744 17.0247C16.8115 17.2392 16.1383 17.348 15.474 17.348C14.8096 17.348 14.1367 17.2392 13.4731 17.0247C12.7943 16.8054 12.2442 16.563 11.8386 16.3043C11.3681 16.0037 10.9424 15.7293 10.5732 15.4888C9.9829 15.104 9.67662 14.9741 9.36017 14.9741C8.55414 14.9741 7.80109 15.1106 7.12159 15.3797C6.43996 15.6496 5.84987 16.0202 5.36762 16.4816C4.90714 16.9225 4.49632 17.4577 4.14722 18.0724C3.81067 18.6649 3.53821 19.2829 3.33765 19.9094C3.14394 20.5151 2.98193 21.1776 2.85611 21.8786C2.73147 22.5735 2.6468 23.2326 2.60493 23.8381C2.56378 24.4313 2.54297 25.0469 2.54297 25.6687C2.54297 27.2869 3.05738 28.5969 4.07178 29.5631C5.07364 30.5165 6.39928 31.0001 8.01134 31.0001H22.938C24.5501 31.0001 25.8753 30.5167 26.8774 29.5631C27.892 28.5976 28.4064 27.2874 28.4064 25.6684C28.4062 25.0438 28.3851 24.4277 28.3437 23.8374Z" fill="#002B3D"/>
</g>
<defs>
<clipPath id="clip0">
<rect width="31" height="31.0001" fill="white"/>
</clipPath>
</defs>
</svg>
