<svg width="31" height="31" viewBox="0 0 31 31" fill="none" xmlns="http://www.w3.org/2000/svg">
<g clip-path="url(#clip0)">
<path d="M20.7022 3.54731C15.9731 -1.18178 8.27612 -1.18178 3.54703 3.54731C-1.18104 8.27742 -1.18104 15.9733 3.54703 20.7035C7.75841 24.9138 14.3174 25.3649 19.0434 22.0772C19.1429 22.5477 19.3705 22.9968 19.7365 23.3627L26.6235 30.2498C27.6272 31.2514 29.249 31.2514 30.2475 30.2498C31.2501 29.2472 31.2501 27.6254 30.2475 26.6258L23.3604 19.7367C22.9965 19.3738 22.5464 19.1452 22.0759 19.0458C25.3656 14.3187 24.9146 7.76074 20.7022 3.54731ZM18.5278 18.5291C14.9971 22.0598 9.25105 22.0598 5.7214 18.5291C2.19278 14.9984 2.19278 9.25338 5.7214 5.72271C9.25105 2.19306 14.9971 2.19306 18.5278 5.72271C22.0585 9.25338 22.0585 14.9984 18.5278 18.5291Z" fill="#002B3D"/>
</g>
<defs>
<clipPath id="clip0">
<rect width="31" height="31" fill="white"/>
</clipPath>
</defs>
</svg>
